<?xml version="1.0" encoding="UTF-8"?>
<svg width="80px" height="80px" viewBox="0 0 80 80" version="1.1" xmlns="http://www.w3.org/2000/svg" xmlns:xlink="http://www.w3.org/1999/xlink">
    <!-- Generator: Sketch 56.3 (81716) - https://sketch.com -->
    <title>反馈组件icon</title>
    <desc>Created with Sketch.</desc>
    <g id="界面补充" stroke="none" stroke-width="1" fill="none" fill-rule="evenodd">
        <g id="风格2备份" transform="translate(-63.000000, -950.000000)">
            <g id="反馈组件" transform="translate(30.000000, 910.000000)">
                <g id="反馈组件icon" transform="translate(36.000000, 43.000000)">
                    <circle id="椭圆形备份-2" stroke="#FDF6F6" stroke-width="5" cx="37" cy="37" r="37"></circle>
                    <g id="icon" transform="translate(22.000000, 18.000000)" fill-rule="nonzero">
                        <g id="操作icon">
                            <path d="M28.785818,16.6670192 L28.7858182,16.6670194 C27.9707946,15.8108351 26.8352511,15.3289544 25.6496467,15.3361482 L25.5660558,15.3361482 C25.2256492,15.3361482 24.8993424,15.3742017 24.5760569,15.4533129 L24.5760569,15.4533129 C23.7614896,14.3460216 22.462065,13.694594 21.0823579,13.7018503 C20.721809,13.7018503 20.3652885,13.7439094 20.0158179,13.8270263 L20.0158177,13.8270261 C19.2011876,12.7140589 17.8984229,12.057988 16.5140618,12.0635466 C16.4637058,12.0635466 16.4173783,12.0635466 16.3670223,12.0675523 L16.3670223,10.6125065 L16.3670223,10.6124773 C16.3691336,9.44236731 15.9374188,8.31253658 15.1544303,7.43902327 C14.3195279,6.50871525 13.1915536,6 11.9749527,6 C9.53872962,6 7.47816227,8.11397225 7.47816227,10.6125008 L7.47816227,19.5290218 C6.68153042,18.9121545 5.66635354,18.5907025 4.57161419,18.6197434 C3.37616285,18.6487842 2.2562455,19.1034234 1.49687708,19.858485 L1.4968769,19.8584852 C0.711095185,20.6486783 0.201004683,21.6686944 0.0415886157,22.7685768 C-0.142714329,24.1284888 0.289340115,25.4132953 1.26221796,26.3806554 L1.26624644,26.384661 L10.0735101,35.0849014 C10.2960836,35.3062125 10.5518921,35.5064941 10.8328785,35.6807391 C12.5731817,37.0736976 14.6407989,38 18.9492422,38 C23.5034306,38 26.5439492,36.7852921 28.2469654,34.2957919 C29.7022537,32.1647957 29.9993541,29.4459652 29.9993541,26.0131308 L29.9993541,19.7873853 L29.9993541,19.7873817 C30.0191387,18.6297619 29.5837126,17.5101839 28.7857707,16.6669944 L28.785818,16.6670192 Z M27.3265012,26.0121506 C27.3265012,28.9482788 27.1079562,31.2254962 26.0343664,32.7926997 C25.2931261,33.8822316 23.7482041,35.3282647 18.9553362,35.3282647 C15.3730106,35.3282647 13.8170182,34.6483087 12.4674776,33.5557726 C12.4171216,33.5187205 12.3667656,33.480667 12.3123811,33.4476205 L12.3123812,33.4476206 C12.1893116,33.3748436 12.0753791,33.2877779 11.9729818,33.1882559 L3.16973086,24.4860206 C2.21800254,23.5356844 2.91795089,22.2258428 3.40438981,21.7411613 C3.6722837,21.4747868 4.15066566,21.2995404 4.64919002,21.2875235 C5.17792798,21.2755066 5.65630994,21.4417403 5.96650288,21.7461683 L7.88305208,23.6438365 C8.26877901,24.0233701 8.84384448,24.1365292 9.34639732,23.932242 C9.8459288,23.7229477 10.1732428,23.240269 10.1732428,22.6975059 L10.1732428,10.6115287 C10.1732428,9.59409815 11.0363445,8.66879718 11.9850515,8.66879718 C13.0082853,8.66879718 13.6921198,9.67320938 13.6921198,10.6115287 L13.6921198,12.0755871 L13.6921197,12.0755877 C13.6789087,12.1553823 13.6718384,12.2360626 13.6709703,12.3169263 L13.6709703,19.3728625 L13.6709703,19.3728627 C13.6709704,20.1100946 14.2720241,20.7077396 15.0134611,20.7077396 C15.7548981,20.7077395 16.355952,20.1100946 16.355952,19.3728627 L16.355952,14.768381 L16.355952,14.768381 C16.4094764,14.7465731 16.4663618,14.7340413 16.524141,14.7313289 C17.2120039,14.7313289 17.7769982,15.1108626 18.0660416,15.7567707 L18.0660416,20.693712 C18.0660416,21.4327511 18.666285,22.0285889 19.4085324,22.0285889 L19.4085324,22.0285889 C20.1482974,22.03025 20.7493512,21.4352977 20.7510232,20.6997283 C20.7510278,20.6977232 20.7510278,20.6957181 20.7510232,20.6937131 L20.7510232,16.3986899 C20.8648278,16.3776603 20.9735967,16.3656434 21.0863942,16.3656434 C21.7742571,16.3656434 22.3412656,16.745177 22.630309,17.3910852 L22.630309,22.0706725 L22.630309,22.0706727 C22.6303091,22.807353 23.2309105,23.4045481 23.9717927,23.4045481 C24.712675,23.404548 25.3132764,22.807353 25.3132764,22.0706727 L25.3132764,18.0249845 C25.3978745,18.0129676 25.4814655,18.0039549 25.570092,18.0039549 L25.653683,18.0039549 C26.2458695,18.0039549 26.6265608,18.2753365 26.8410774,18.4996518 C27.1563059,18.8291151 27.3275163,19.2837543 27.3275163,19.7844583 L27.3275163,26.0121989 L27.3265012,26.0121506 Z" id="形状" fill="#E1251B"></path>
                            <path d="M5.35531324,9 C6.10520178,9 6.71162454,8.41761606 6.71162454,7.69526647 C6.71162454,4.89102316 9.08440622,2.60848442 11.999501,2.60848442 C14.9146037,2.60848442 17.2873774,4.89103081 17.2873774,7.69526647 L17.2873774,7.69526667 C17.2873775,8.41584984 17.8946189,9 18.6436887,9 C19.3927585,9 20,8.41584984 20,7.69526667 C20,3.45219695 16.4113203,0 11.9994851,0 C7.58867523,0 4,3.45220459 4,7.69526667 L4,7.6952918 C3.99833121,8.41425002 4.60284912,8.99838708 5.35022971,9 C5.35192719,9 5.35362466,9 5.35532212,9 L5.35531324,9 Z" id="路径" fill="#003781"></path>
                        </g>
                    </g>
                </g>
            </g>
        </g>
    </g>
</svg>