<?xml version="1.0" encoding="UTF-8"?>
<svg width="28px" height="28px" viewBox="0 0 28 28" version="1.1" xmlns="http://www.w3.org/2000/svg" xmlns:xlink="http://www.w3.org/1999/xlink">
    <!-- Generator: Sketch 56.3 (81716) - https://sketch.com -->
    <title>编组</title>
    <desc>Created with Sketch.</desc>
    <g id="Page-1" stroke="none" stroke-width="1" fill="none" fill-rule="evenodd">
        <g id="C4-07-复选框" transform="translate(-220.000000, -597.000000)">
            <g id="复选框-基本样式-勾选" transform="translate(220.000000, 592.000000)">
                <g id="编组" transform="translate(0.000000, 5.000000)">
                    <rect id="选中" fill="#FB4A41" x="0" y="0" width="28" height="28" rx="4"></rect>
                    <path d="M15.4026823,16.5944125 L15.4730563,5.69717342 C15.4789149,4.78998434 16.204961,4.05183505 17.1119293,4.03098047 C17.9850031,4.01090525 18.7090435,4.70239722 18.7291187,5.57547102 C18.7294774,5.59107388 18.7296052,5.60668118 18.7295019,5.62228782 L18.6419592,18.8466444 C18.6383538,19.3912727 18.1995698,19.832863 17.6549754,19.8399403 L10.8494644,19.928381 C9.96635394,19.9398574 9.24114797,19.2332584 9.22967154,18.350148 C9.22949922,18.3368881 9.22949185,18.3236266 9.22964942,18.3103666 C9.24048386,17.3986144 9.97669023,16.6619877 10.8884361,16.6506328 L15.4026823,16.5944125 Z" id="Combined-Shape" fill="#FFFFFF" transform="translate(13.979537, 11.979537) rotate(-315.000000) translate(-13.979537, -11.979537) "></path>
                </g>
            </g>
        </g>
    </g>
</svg>