<?xml version="1.0" encoding="UTF-8"?>
<svg width="80px" height="80px" viewBox="0 0 80 80" version="1.1" xmlns="http://www.w3.org/2000/svg" xmlns:xlink="http://www.w3.org/1999/xlink">
    <!-- Generator: Sketch 56.3 (81716) - https://sketch.com -->
    <title>数据录入组件icon</title>
    <desc>Created with Sketch.</desc>
    <g id="界面补充" stroke="none" stroke-width="1" fill="none" fill-rule="evenodd">
        <g id="风格2备份" transform="translate(-63.000000, -1139.000000)">
            <g id="表单组件" transform="translate(30.000000, 1099.000000)">
                <g id="数据录入组件icon" transform="translate(36.000000, 43.000000)">
                    <circle id="椭圆形备份-3" stroke="#FDF6F6" stroke-width="5" cx="37" cy="37" r="37"></circle>
                    <g id="icon" transform="translate(18.000000, 27.000000)">
                        <path d="M26.4484509,13 L11.5515491,13 C10.6982923,13 10,12.2635884 10,11.363257 L10,9.63674303 C10,8.73641162 10.6982923,8 11.5515491,8 L26.4484509,8 C27.3019193,8 28,8.73641162 28,9.63674303 L28,11.363257 C28,12.2635884 27.3019193,13 26.4484509,13 Z" id="Fill-1" fill="#003781"></path>
                        <path d="M15.7048236,21 L10.8945681,21 C7.99500721,21 5.26197987,19.9050716 3.19916488,17.9169604 C1.13607056,15.92858 0,13.2947432 0,10.5000269 C0,7.70547213 1.13607056,5.07141996 3.19916488,3.08330876 C5.26197987,1.09492835 7.99500721,0 10.8945681,0 L15.7048236,0 C16.4878274,0 17.1219512,0.611589848 17.1219512,1.36580682 C17.1219512,2.12045453 16.4873805,2.73161364 15.7048236,2.73161364 L10.8945681,2.73161364 C6.4504518,2.73161364 2.83470164,6.21642126 2.83470164,10.4995962 C2.83470164,14.7827711 6.4504518,18.2675249 10.8945681,18.2675249 L15.7048236,18.2675249 C16.4878274,18.2675249 17.1219512,18.8791686 17.1219512,19.6333317 C17.1223979,20.3884102 16.4878274,21 15.7048236,21 Z M28.1054876,21 L23.2951762,21 C22.5122282,21 21.8780488,20.3883851 21.8780488,19.6341371 C21.8780488,18.8794585 22.5126751,18.2682743 23.2951762,18.2682743 L28.1054876,18.2682743 C32.549604,18.2682743 36.1650749,14.7833237 36.1650749,10.4999731 C36.1650749,6.21667628 32.549604,2.73194108 28.1054876,2.73194108 L23.2951762,2.73194108 C22.5122282,2.73194108 21.8780488,2.12011076 21.8780488,1.36586285 C21.8780488,0.611184185 22.5126751,0 23.2951762,0 L28.1054876,0 C31.0049927,0 33.7377966,1.09497327 35.8008909,3.08338141 C37.8639853,5.07162801 39,7.70578824 39,10.5004038 C39,13.2952348 37.8639853,15.9291796 35.8008909,17.9176416 C33.7377966,19.9050267 31.0049927,21 28.1054876,21 Z" id="Fill-3" fill="#E1251B"></path>
                    </g>
                </g>
            </g>
        </g>
    </g>
</svg>