<?xml version="1.0" encoding="UTF-8"?>
<svg width="36px" height="36px" viewBox="0 0 36 36" version="1.1" xmlns="http://www.w3.org/2000/svg" xmlns:xlink="http://www.w3.org/1999/xlink">
    <!-- Generator: Sketch 56.3 (81716) - https://sketch.com -->
    <title>分组 4</title>
    <desc>Created with Sketch.</desc>
    <g id="Page-1" stroke="none" stroke-width="1" fill="none" fill-rule="evenodd">
        <g id="C4-06-单选项" transform="translate(-1142.000000, -487.000000)">
            <g id="单选-默认勾选-基本样式" transform="translate(1142.000000, 460.000000)">
                <g id="分组-4" transform="translate(0.000000, 27.000000)">
                    <circle id="Oval" fill="#FB4A41" cx="18" cy="18" r="18"></circle>
                    <path d="M20.1077526,21.4660113 L20.1887812,8.91894337 C20.1955268,7.87440696 21.0314954,7.02450276 22.0757776,7.00049082 C23.0810337,6.97737624 23.9146928,7.77355926 23.9378074,8.77881538 C23.9382205,8.79678048 23.9383676,8.81475072 23.9382487,8.83272018 L23.8364693,24.207683 C23.832864,24.7523114 23.3940799,25.1939017 22.8494856,25.2009789 L14.865183,25.3047386 C13.8483707,25.3179526 13.0133694,24.5043753 13.0001555,23.487563 C12.9999571,23.4722956 12.9999486,23.4570263 13.00013,23.4417587 C13.0126048,22.3919684 13.8602719,21.5438173 14.9100549,21.5307433 L20.1077526,21.4660113 Z" id="Combined-Shape" fill="#FFFFFF" transform="translate(18.469144, 16.152449) rotate(-315.000000) translate(-18.469144, -16.152449) "></path>
                </g>
            </g>
        </g>
    </g>
</svg>