<?xml version="1.0" encoding="UTF-8"?>
<svg width="92px" height="92px" viewBox="0 0 92 92" version="1.1" xmlns="http://www.w3.org/2000/svg" xmlns:xlink="http://www.w3.org/1999/xlink">
    <!-- Generator: Sketch 56.3 (81716) - https://sketch.com -->
    <title>step2-准备资料</title>
    <desc>Created with Sketch.</desc>
    <defs>
        <linearGradient x1="50%" y1="0%" x2="50%" y2="100%" id="linearGradient-1">
            <stop stop-color="#CED9E2" offset="0%"></stop>
            <stop stop-color="#F7FAFB" offset="100%"></stop>
        </linearGradient>
        <linearGradient x1="50%" y1="0%" x2="50%" y2="100%" id="linearGradient-2">
            <stop stop-color="#E4E6EC" offset="0%"></stop>
            <stop stop-color="#F7FAFB" offset="100%"></stop>
        </linearGradient>
        <linearGradient x1="21.6460613%" y1="32.2051379%" x2="81.6083177%" y2="72.2037518%" id="linearGradient-3">
            <stop stop-color="#FB4941" offset="0%"></stop>
            <stop stop-color="#FDA4A0" offset="100%"></stop>
        </linearGradient>
        <path d="M34.8592638,13.659493 L34.8592638,26.3306069 C34.8592638,28.212771 33.3395531,29.8025849 31.4526986,29.8025849 L3.40671597,29.8025849 C1.51971078,29.8025849 0,28.2539055 0,26.3306069 L0,13.659493 L34.8592638,13.659493 Z M34.8592638,11.1758441 L0,11.1758441 L0,3.471978 C0,1.5897638 1.5199117,0 3.40671597,0 L11.7836608,0 C15.0685145,0 15.0685145,3.471978 18.4764361,3.47057512 L31.4526986,3.471978 C33.3395531,3.471978 34.7352417,4.85196111 34.8592638,6.77756439 L34.8592638,11.1758441 Z" id="path-4"></path>
        <filter x="-28.7%" y="-33.6%" width="157.4%" height="167.1%" filterUnits="objectBoundingBox" id="filter-5">
            <feMorphology radius="8" operator="erode" in="SourceAlpha" result="shadowSpreadInner1"></feMorphology>
            <feGaussianBlur stdDeviation="6" in="shadowSpreadInner1" result="shadowBlurInner1"></feGaussianBlur>
            <feOffset dx="0" dy="0" in="shadowBlurInner1" result="shadowOffsetInner1"></feOffset>
            <feComposite in="shadowOffsetInner1" in2="SourceAlpha" operator="arithmetic" k2="-1" k3="1" result="shadowInnerInner1"></feComposite>
            <feColorMatrix values="0 0 0 0 0.798978591   0 0 0 0 0.961710989   0 0 0 0 0.138542295  0 0 0 0.190698596 0" type="matrix" in="shadowInnerInner1"></feColorMatrix>
        </filter>
    </defs>
    <g id="Page-1" stroke="none" stroke-width="1" fill="none" fill-rule="evenodd">
        <g id="C2-6-手风琴" transform="translate(-242.000000, -486.000000)">
            <g id="编组" transform="translate(242.000000, 364.000000)">
                <g id="step2-准备资料" transform="translate(0.000000, 122.000000)">
                    <g id="圆圈背景-2" fill-rule="nonzero">
                        <circle id="椭圆形" fill="url(#linearGradient-1)" opacity="0.314546131" cx="46" cy="46" r="46"></circle>
                        <circle id="椭圆形" fill="url(#linearGradient-2)" cx="46" cy="46" r="38.6984127"></circle>
                    </g>
                    <g id="图标-第二步" transform="translate(24.301887, 27.773585)">
                        <g id="Fill-1">
                            <use fill="url(#linearGradient-3)" fill-rule="evenodd" xlink:href="#path-4"></use>
                            <use fill="black" fill-opacity="1" filter="url(#filter-5)" xlink:href="#path-4"></use>
                        </g>
                        <path d="M41.1908475,10.6437803 L37.8828099,10.6437803 L28.5099187,10.6437803 L26.855823,10.6437803 L23.5477854,10.6437803 C22.3293504,10.6437803 21.3424064,11.9141421 21.3424064,13.4820778 L21.3424064,33.3505161 C21.3424064,34.9184914 22.3293504,36.1888531 23.5477854,36.1888531 L41.1908475,36.1888531 C42.4091594,36.1888531 43.3962264,34.9184914 43.3962264,33.3505161 L43.3962264,13.4820778 C43.3962264,11.9141421 42.4091594,10.6437803 41.1908475,10.6437803 Z" id="路径" fill="#546AAF"></path>
                        <path d="M41.2619858,32.0259475 C41.2619858,32.7563057 40.7926546,33.3505117 40.2157842,33.3505117 L24.5228486,33.3505117 C23.9459782,33.3505117 23.4766471,32.7563057 23.4766471,32.0259475 L23.4766471,14.806686 C23.4766471,14.0763647 23.9459782,13.4821218 24.5228486,13.4821218 L27.1382649,13.4821218 L28.7076256,13.4821218 L36.0310072,13.4821218 L37.6003679,13.4821218 L40.2157842,13.4821218 C40.7926546,13.4821218 41.2619858,14.0763647 41.2619858,14.806686 L41.2619858,32.0259475 Z" id="路径" fill="#FFFFFF"></path>
                        <path d="M36.4830356,17.7396339 L28.2555972,17.7396339 C27.5791372,17.7396339 27.0337148,18.2147938 27.0337148,18.8040713 C27.0337148,19.39323 27.5791372,19.86839 28.2555972,19.86839 L36.4830356,19.86839 C37.1594957,19.86839 37.704918,19.39323 37.704918,18.8040713 C37.704918,18.2147938 37.1594957,17.7396339 36.4830356,17.7396339 Z" id="路径" fill="#FDA4A0"></path>
                        <path d="M36.4830356,21.997146 L28.2555972,21.997146 C27.5791372,21.997146 27.0337148,22.472306 27.0337148,23.0615835 C27.0337148,23.6507422 27.5791372,24.1259021 28.2555972,24.1259021 L36.4830356,24.1259021 C37.1594957,24.1259021 37.704918,23.6507422 37.704918,23.0615835 C37.704918,22.472306 37.1594957,21.997146 36.4830356,21.997146 Z" id="路径-copy" fill="#FDA4A0"></path>
                        <path d="M36.4830356,26.2546582 L28.2555972,26.2546582 C27.5791372,26.2546582 27.0337148,26.7298181 27.0337148,27.3190956 C27.0337148,27.9082543 27.5791372,28.3834142 28.2555972,28.3834142 L36.4830356,28.3834142 C37.1594957,28.3834142 37.704918,27.9082543 37.704918,27.3190956 C37.704918,26.7298181 37.1594957,26.2546582 36.4830356,26.2546582 Z" id="路径-copy-2" fill="#FDA4A0"></path>
                    </g>
                </g>
            </g>
        </g>
    </g>
</svg>