<?xml version="1.0" encoding="UTF-8"?>
<svg width="92px" height="92px" viewBox="0 0 92 92" version="1.1" xmlns="http://www.w3.org/2000/svg" xmlns:xlink="http://www.w3.org/1999/xlink">
    <!-- Generator: Sketch 56.3 (81716) - https://sketch.com -->
    <title>step3-寄送理赔资料</title>
    <desc>Created with Sketch.</desc>
    <defs>
        <linearGradient x1="50%" y1="0%" x2="50%" y2="100%" id="linearGradient-1">
            <stop stop-color="#CED9E2" offset="0%"></stop>
            <stop stop-color="#F7FAFB" offset="100%"></stop>
        </linearGradient>
        <linearGradient x1="50%" y1="0%" x2="50%" y2="100%" id="linearGradient-2">
            <stop stop-color="#E4E6EC" offset="0%"></stop>
            <stop stop-color="#F7FAFB" offset="100%"></stop>
        </linearGradient>
        <linearGradient x1="21.6460613%" y1="25.7181482%" x2="81.6083177%" y2="80.2979707%" id="linearGradient-3">
            <stop stop-color="#FB4941" offset="0%"></stop>
            <stop stop-color="#FDA4A0" offset="100%"></stop>
        </linearGradient>
        <path d="M31.4043886,0.199112098 C31.7990103,0.481851276 31.9545565,0.864096726 31.8829385,1.33410083 L27.3256005,28.6402344 C27.2658441,28.9826574 27.074464,29.2496667 26.7553975,29.4407645 C26.5920267,29.5323561 26.4045839,29.5840755 26.2052296,29.5840755 C26.073606,29.5840755 25.9301207,29.5522175 25.7786614,29.4924839 L17.7166756,26.2030525 L13.4066366,31.4517469 C13.191334,31.7264719 12.9002768,31.8579356 12.533465,31.8579356 C12.3820056,31.8579356 12.2504318,31.8340422 12.1388433,31.7862055 C11.9155665,31.7025784 11.7321606,31.567232 11.5965,31.3681199 C11.460989,31.1728905 11.3891716,30.9580485 11.3891716,30.7190642 L11.3891716,24.5186139 L26.7674585,5.69062375 L7.74098873,22.1372332 L0.711807554,19.2580723 C0.273178355,19.0949497 0.0339532498,18.7682565 0.00200673051,18.2784408 C-0.0217662643,17.8046038 0.165527058,17.4542163 0.572209737,17.2270791 L30.1884273,0.1592399 C30.3676966,0.0517193674 30.5551893,0 30.758431,0 C30.9977059,0 31.2130085,0.0676483352 31.4043886,0.199112098 Z" id="path-4"></path>
        <filter x="-31.3%" y="-31.4%" width="162.7%" height="162.8%" filterUnits="objectBoundingBox" id="filter-5">
            <feMorphology radius="8" operator="erode" in="SourceAlpha" result="shadowSpreadInner1"></feMorphology>
            <feGaussianBlur stdDeviation="6" in="shadowSpreadInner1" result="shadowBlurInner1"></feGaussianBlur>
            <feOffset dx="0" dy="0" in="shadowBlurInner1" result="shadowOffsetInner1"></feOffset>
            <feComposite in="shadowOffsetInner1" in2="SourceAlpha" operator="arithmetic" k2="-1" k3="1" result="shadowInnerInner1"></feComposite>
            <feColorMatrix values="0 0 0 0 0.798978591   0 0 0 0 0.961710989   0 0 0 0 0.138542295  0 0 0 0.190698596 0" type="matrix" in="shadowInnerInner1"></feColorMatrix>
        </filter>
    </defs>
    <g id="Page-1" stroke="none" stroke-width="1" fill="none" fill-rule="evenodd">
        <g id="C2-6-手风琴" transform="translate(-242.000000, -608.000000)">
            <g id="编组" transform="translate(242.000000, 364.000000)">
                <g id="step3-寄送理赔资料" transform="translate(0.000000, 244.000000)">
                    <g id="圆圈背景-3" fill-rule="nonzero">
                        <circle id="椭圆形" fill="url(#linearGradient-1)" opacity="0.314546131" cx="46" cy="46" r="46"></circle>
                        <circle id="椭圆形" fill="url(#linearGradient-2)" cx="46" cy="46" r="38.6984127"></circle>
                    </g>
                    <g id="图标-第三部" transform="translate(23.433962, 25.169811)">
                        <g id="Fill-1">
                            <use fill="url(#linearGradient-3)" fill-rule="evenodd" xlink:href="#path-4"></use>
                            <use fill="black" fill-opacity="1" filter="url(#filter-5)" xlink:href="#path-4"></use>
                        </g>
                        <path d="M43.0745867,17.2563818 L39.9883822,17.2563818 L31.244026,17.2563818 L29.700852,17.2563818 L26.6146475,17.2563818 C25.4779194,17.2563818 24.5571587,18.4446081 24.5571587,19.9111686 L24.5571587,38.4950097 C24.5571587,39.9616073 25.4779194,41.1498335 26.6146475,41.1498335 L43.0745867,41.1498335 C44.2112,41.1498335 45.1320755,39.9616073 45.1320755,38.4950097 L45.1320755,19.9111686 C45.1320755,18.4446081 44.2112,17.2563818 43.0745867,17.2563818 Z" id="路径" fill="#546AAF"></path>
                        <path d="M43.1409545,37.2560812 C43.1409545,37.939218 42.7030961,38.4950055 42.16491,38.4950055 L27.5243242,38.4950055 C26.986138,38.4950055 26.5482797,37.939218 26.5482797,37.2560812 L26.5482797,21.1501341 C26.5482797,20.4670319 26.986138,19.9112098 27.5243242,19.9112098 L29.9643537,19.9112098 L31.428475,19.9112098 L38.2607592,19.9112098 L39.7248804,19.9112098 L42.16491,19.9112098 C42.7030961,19.9112098 43.1409545,20.4670319 43.1409545,21.1501341 L43.1409545,37.2560812 Z" id="路径" fill="#FFFFFF"></path>
                        <path d="M38.6824751,23.8934517 L31.0067591,23.8934517 C30.3756616,23.8934517 29.8668147,24.3378901 29.8668147,24.8890678 C29.8668147,25.4401343 30.3756616,25.8845727 31.0067591,25.8845727 L38.6824751,25.8845727 C39.3135726,25.8845727 39.8224195,25.4401343 39.8224195,24.8890678 C39.8224195,24.3378901 39.3135726,23.8934517 38.6824751,23.8934517 Z" id="路径" fill="#FDA4A0"></path>
                        <path d="M38.6824751,27.8756937 L31.0067591,27.8756937 C30.3756616,27.8756937 29.8668147,28.3201321 29.8668147,28.8713097 C29.8668147,29.4223763 30.3756616,29.8668147 31.0067591,29.8668147 L38.6824751,29.8668147 C39.3135726,29.8668147 39.8224195,29.4223763 39.8224195,28.8713097 C39.8224195,28.3201321 39.3135726,27.8756937 38.6824751,27.8756937 Z" id="路径-copy" fill="#FDA4A0"></path>
                        <path d="M38.6824751,31.8579356 L31.0067591,31.8579356 C30.3756616,31.8579356 29.8668147,32.302374 29.8668147,32.8535517 C29.8668147,33.4046182 30.3756616,33.8490566 31.0067591,33.8490566 L38.6824751,33.8490566 C39.3135726,33.8490566 39.8224195,33.4046182 39.8224195,32.8535517 C39.8224195,32.302374 39.3135726,31.8579356 38.6824751,31.8579356 Z" id="路径-copy-2" fill="#FDA4A0"></path>
                    </g>
                </g>
            </g>
        </g>
    </g>
</svg>