<?xml version="1.0" encoding="UTF-8"?>
<svg width="92px" height="92px" viewBox="0 0 92 92" version="1.1" xmlns="http://www.w3.org/2000/svg" xmlns:xlink="http://www.w3.org/1999/xlink">
    <!-- Generator: Sketch 56.3 (81716) - https://sketch.com -->
    <title>step1- x</title>
    <desc>Created with Sketch.</desc>
    <defs>
        <linearGradient x1="50%" y1="0%" x2="50%" y2="100%" id="linearGradient-1">
            <stop stop-color="#CED9E2" offset="0%"></stop>
            <stop stop-color="#F7FAFB" offset="100%"></stop>
        </linearGradient>
        <linearGradient x1="50%" y1="0%" x2="50%" y2="100%" id="linearGradient-2">
            <stop stop-color="#E4E6EC" offset="0%"></stop>
            <stop stop-color="#F7FAFB" offset="100%"></stop>
        </linearGradient>
        <linearGradient x1="21.6460613%" y1="25.7945024%" x2="81.6083177%" y2="80.2026989%" id="linearGradient-3">
            <stop stop-color="#FB4941" offset="0%"></stop>
            <stop stop-color="#FDA4A0" offset="100%"></stop>
        </linearGradient>
        <path d="M8.45425661,9.24694871 C8.21526976,9.24694871 7.9765171,9.32055005 7.77025775,9.46758036 C7.71879537,9.50435231 7.67189961,9.54566328 7.62523805,9.59168567 L1.81268214,15.3880353 C0.655686044,16.4543067 -5.68434189e-14,17.9526485 -5.68434189e-14,19.5248788 C-0.00454293166,21.0921104 0.651119416,22.590682 1.81268214,23.6662038 L20.0837594,41.859122 C21.1188617,42.9806662 22.5802411,43.6380221 24.125986,43.6746217 L24.1492875,43.6746217 C24.7253851,43.6746217 25.2969162,43.5828067 25.8400521,43.4034861 C26.7862222,43.0819039 27.6481439,42.5623279 28.3740621,41.8775654 L34.186618,36.0859271 C34.6408218,35.6262778 34.6408218,34.895493 34.186618,34.4358437 L25.8869479,26.1621568 C25.6669301,25.9460642 25.37168,25.8219014 25.0579293,25.8219014 C24.7487452,25.8219014 24.4491627,25.9460642 24.2289107,26.1621568 L22.6408274,28.1968369 C22.3691131,28.4634909 22.0132674,28.6012708 21.6619884,28.6012708 C21.3059085,28.6012708 20.9500628,28.4679725 20.6783485,28.1968369 L15.9619588,23.4807205 C15.4373236,22.9568927 15.4373236,22.1109656 15.9619588,21.5871378 L17.5875119,19.5156858 C18.0417157,19.0560365 18.0417157,18.3250218 17.5875119,17.8653725 L9.28790034,9.59168567 C9.05828093,9.36186103 8.75389764,9.24694871 8.45425661,9.24694871 Z" id="path-4"></path>
        <filter x="-29.0%" y="-29.0%" width="157.9%" height="158.1%" filterUnits="objectBoundingBox" id="filter-5">
            <feMorphology radius="8" operator="erode" in="SourceAlpha" result="shadowSpreadInner1"></feMorphology>
            <feGaussianBlur stdDeviation="6" in="shadowSpreadInner1" result="shadowBlurInner1"></feGaussianBlur>
            <feOffset dx="0" dy="0" in="shadowBlurInner1" result="shadowOffsetInner1"></feOffset>
            <feComposite in="shadowOffsetInner1" in2="SourceAlpha" operator="arithmetic" k2="-1" k3="1" result="shadowInnerInner1"></feComposite>
            <feColorMatrix values="0 0 0 0 0.798978591   0 0 0 0 0.961710989   0 0 0 0 0.138542295  0 0 0 0.190698596 0" type="matrix" in="shadowInnerInner1"></feColorMatrix>
        </filter>
    </defs>
    <g id="Page-1" stroke="none" stroke-width="1" fill="none" fill-rule="evenodd">
        <g id="C2-6-手风琴" transform="translate(-242.000000, -364.000000)">
            <g id="编组" transform="translate(242.000000, 364.000000)">
                <g id="step1- x">
                    <g id="圆圈背景" fill-rule="nonzero">
                        <circle id="椭圆形" fill="url(#linearGradient-1)" opacity="0.314546131" cx="46" cy="46" r="46"></circle>
                        <circle id="椭圆形" fill="url(#linearGradient-2)" cx="45.5660377" cy="46.4339623" r="38.6226415"></circle>
                    </g>
                    <g id="图标-第一步" transform="translate(23.433962, 23.433962)">
                        <g id="`">
                            <use fill="url(#linearGradient-3)" fill-rule="evenodd" xlink:href="#path-4"></use>
                            <use fill="black" fill-opacity="1" filter="url(#filter-5)" xlink:href="#path-4"></use>
                        </g>
                        <g id="分组" transform="translate(17.263635, 0.025251)">
                            <path d="M1.39768318,3.20884773 C0.611300693,3.1185194 1.02140518e-14,2.43687764 1.02140518e-14,1.60950307 C1.02140518e-14,0.78212849 0.611300693,0.100486737 1.39768318,0.0101584016 L1.39768318,3.55271368e-15 L26.0834499,3.55271368e-15 C26.6612675,3.55271368e-15 27.133908,0.482783857 27.12857,1.07300204 L27.12857,25.9773124 C27.12857,26.6427078 26.6032953,27.0503145 26.0675617,27.0503145 C25.736733,27.0503145 25.4059043,26.8894983 25.1904948,26.5408397 L21.0937736,19.8183478 C20.8993732,19.5071101 20.5631609,19.3140368 20.2008185,19.3140368 L7.70043212,19.3140368 L7.70043212,19.2974152 C7.67784597,19.2983966 7.65513679,19.2988924 7.63231435,19.2988924 C6.76214107,19.2988924 6.05662711,18.5782374 6.05662711,17.6893893 C6.05662711,16.8005412 6.76214107,16.0798862 7.63231435,16.0798862 C7.70594432,16.0798862 7.77839538,16.0850459 7.84933985,16.0950307 L20.2008185,16.0950307 C21.6610867,16.0950307 22.9951685,16.8515642 23.767124,18.1176395 L23.9825335,18.4717972 L23.9825335,3.21900613 L1.39768318,3.21900613 L1.39768318,3.20884773 Z" id="合并形状" fill="#6F81BB"></path>
                            <path d="M6.63142821,8.91430818 C6.63142821,9.7630246 7.3060002,10.4512579 8.13857099,10.4512579 C8.97089058,10.4512579 9.64571376,9.7630246 9.64571376,8.91430818 C9.64571376,8.06527155 8.97089058,7.37735849 8.13857099,7.37735849 C7.3060002,7.37735849 6.63142821,8.06527155 6.63142821,8.91430818 Z" id="Fill-6" fill="#FDA4A0"></path>
                            <path d="M11.4542851,8.91430818 C11.4542851,9.7630246 12.1291083,10.4512579 12.9614279,10.4512579 C13.7937475,10.4512579 14.4685706,9.7630246 14.4685706,8.91430818 C14.4685706,8.06527155 13.7937475,7.37735849 12.9614279,7.37735849 C12.1291083,7.37735849 11.4542851,8.06527155 11.4542851,8.91430818 Z" id="Fill-7" fill="#FDA4A0"></path>
                            <path d="M16.277142,8.91430818 C16.277142,9.7630246 16.9519652,10.4512579 17.7842847,10.4512579 C18.6166043,10.4512579 19.2914275,9.7630246 19.2914275,8.91430818 C19.2914275,8.06527155 18.6166043,7.37735849 17.7842847,7.37735849 C16.9519652,7.37735849 16.277142,8.06527155 16.277142,8.91430818 Z" id="Fill-8" fill="#FDA4A0"></path>
                        </g>
                    </g>
                </g>
            </g>
        </g>
    </g>
</svg>