<?xml version="1.0" encoding="UTF-8"?>
<svg width="40px" height="36px" viewBox="0 0 40 36" version="1.1" xmlns="http://www.w3.org/2000/svg" xmlns:xlink="http://www.w3.org/1999/xlink">
    <!-- Generator: Sketch 56.3 (81716) - https://sketch.com -->
    <title>Fill 1备份 6</title>
    <desc>Created with Sketch.</desc>
    <defs>
        <path d="M245.0565,1777.2546 C244.707776,1776.96287 244.268475,1776.91898 243.888946,1777.13776 L236.01206,1781.68175 L231.226547,1781.68175 C230.549152,1781.68175 230,1782.39096 230,1783.26578 L230,1792.73328 C230,1793.15326 230.129162,1793.5563 230.359193,1793.85338 C230.589224,1794.15045 230.901165,1794.31731 231.226547,1794.31731 L236.01206,1794.31731 L243.889229,1798.86221 C244.268617,1799.08127 244.7082,1799.03705 245.056641,1798.74441 C245.405613,1798.45273 245.616015,1797.95244 245.616015,1797.41557 L245.616015,1778.58385 C245.616015,1778.04698 245.40533,1777.54669 245.0565,1777.2546 Z M254.773453,1786.44416 L249.700437,1786.44416 C249.023042,1786.44416 248.47389,1787.15337 248.47389,1788.02814 C248.47389,1788.90297 249.023042,1789.61217 249.700437,1789.61217 L254.773453,1789.61217 C255.450813,1789.61217 256,1788.90297 256,1788.02814 C256,1787.15337 255.450813,1786.44416 254.773453,1786.44416 Z M248.978161,1784.11434 C249.216467,1784.11434 249.449681,1784.02441 249.648871,1783.85527 L253.837168,1780.3113 C254.205379,1780.00208 254.417443,1779.46219 254.39311,1778.89572 C254.368813,1778.32939 254.111832,1777.82303 253.719465,1777.56825 C253.327097,1777.31329 252.859184,1777.34901 252.49267,1777.66139 L248.304656,1781.20517 C247.850678,1781.58917 247.646077,1782.31262 247.801623,1782.98405 C247.957064,1783.65544 248.435622,1784.11503 248.978161,1784.11434 Z M253.837168,1795.74499 L249.648871,1792.2012 C249.282357,1791.89111 248.815541,1791.85704 248.424163,1792.112 C248.032892,1792.36678 247.776619,1792.8719 247.752038,1793.43695 C247.727281,1794.00201 247.937859,1794.54121 248.304373,1794.8513 L252.49267,1798.39508 C252.76454,1798.62579 253.096394,1798.70732 253.414985,1798.6215 C253.733435,1798.53586 254.012485,1798.28998 254.190596,1797.93833 C254.368954,1797.58704 254.431944,1797.15846 254.36563,1796.7472 C254.299316,1796.33576 254.109215,1795.97533 253.837168,1795.74499 Z" id="path-1"></path>
        <filter x="-44.2%" y="-43.2%" width="188.5%" height="204.5%" filterUnits="objectBoundingBox" id="filter-2">
            <feOffset dx="0" dy="2" in="SourceAlpha" result="shadowOffsetOuter1"></feOffset>
            <feGaussianBlur stdDeviation="3.5" in="shadowOffsetOuter1" result="shadowBlurOuter1"></feGaussianBlur>
            <feComposite in="shadowBlurOuter1" in2="SourceAlpha" operator="out" result="shadowBlurOuter1"></feComposite>
            <feColorMatrix values="0 0 0 0 0.94438244   0 0 0 0 0.840237779   0 0 0 0 0.650883849  0 0 0 1 0" type="matrix" in="shadowBlurOuter1"></feColorMatrix>
        </filter>
    </defs>
    <g id="Page-1" stroke="none" stroke-width="1" fill="none" fill-rule="evenodd">
        <g id="C2-03-通告栏-Noticebar" transform="translate(-223.000000, -1772.000000)" fill-rule="nonzero">
            <g id="Fill-1备份-6">
                <use fill="black" fill-opacity="1" filter="url(#filter-2)" xlink:href="#path-1"></use>
                <path stroke="#F12217" stroke-width="1" d="M244.735588,1777.63803 C244.545911,1777.4794 244.334164,1777.45824 244.138792,1777.57086 L236.14594,1782.18175 L231.226547,1782.18175 C230.857293,1782.18175 230.5,1782.64318 230.5,1783.26578 L230.5,1792.73328 C230.5,1793.04571 230.594575,1793.34069 230.75453,1793.54726 C230.893535,1793.72678 231.062783,1793.81731 231.226547,1793.81731 L236.145959,1793.81731 L236.261937,1793.88422 L244.139246,1798.42921 C244.334305,1798.54183 244.545783,1798.52051 244.735982,1798.36077 C244.965288,1798.16911 245.116015,1797.81096 245.116015,1797.41557 L245.116015,1778.58385 C245.116015,1778.1887 244.965168,1777.83033 244.735588,1777.63803 Z M254.773453,1786.94416 L249.700437,1786.94416 C249.331186,1786.94416 248.97389,1787.40558 248.97389,1788.02814 C248.97389,1788.65075 249.331183,1789.11217 249.700437,1789.11217 L254.773453,1789.11217 C255.142687,1789.11217 255.5,1788.65073 255.5,1788.02814 C255.5,1787.4056 255.142684,1786.94416 254.773453,1786.94416 Z M248.97753,1783.61434 L248.978161,1783.61434 C249.095004,1783.61434 249.21442,1783.56823 249.325898,1783.47358 L253.515617,1779.92841 C253.758799,1779.72419 253.911532,1779.33531 253.89357,1778.91716 C253.875854,1778.50423 253.695514,1778.14886 253.447029,1777.98751 C253.24225,1777.85445 253.016863,1777.87158 252.815646,1778.04308 L248.627558,1781.58692 C248.323778,1781.84387 248.173685,1782.37463 248.288739,1782.87127 C248.39542,1783.33206 248.68966,1783.6147 248.97753,1783.61434 Z M253.514076,1796.12658 L253.514205,1796.12669 L249.325921,1792.58291 C249.126394,1792.4141 248.901588,1792.39772 248.696997,1792.531 C248.449304,1792.69228 248.269485,1793.04675 248.251559,1793.45884 C248.233281,1793.87601 248.385035,1794.2646 248.627336,1794.4696 L252.816183,1798.01385 C252.965585,1798.14063 253.128919,1798.18074 253.285132,1798.13865 C253.45887,1798.09193 253.627605,1797.94329 253.744768,1797.71197 C253.874488,1797.45648 253.921717,1797.13509 253.872,1796.82676 C253.823938,1796.52856 253.69092,1796.27631 253.514076,1796.12658 Z" stroke-linejoin="square" fill="#FB4F46" fill-rule="evenodd"></path>
            </g>
        </g>
    </g>
</svg>