<svg width="8" height="8" xmlns="http://www.w3.org/2000/svg"><g fill="#666" fill-rule="nonzero"><path d="M5.6 2.133a.533.533 0 101.067 0 .533.533 0 00-1.067 0z"/><path d="M7.937.368A.259.259 0 007.76.281L4.08.025a.255.255 0 00-.22.095l-.743.922a.256.256 0 00.005.329l1.179 1.364-1.19 1.562.295-1.391a.256.256 0 00-.09-.253l-1.544-1.25.642-1.009a.256.256 0 00-.236-.393L.24.135A.259.259 0 000 .41l.45 6.405a.257.257 0 00.278.239l1.423-.106a.257.257 0 10-.038-.512l-1.166.086-.051-.742 1.01-.101a.259.259 0 00.232-.281.26.26 0 00-.283-.23l-.995.099L.534.63l1.17-.081-.491.772a.256.256 0 00.055.337l1.6 1.295-.474 2.242a.247.247 0 00.006.118c-.001.03.003.06.012.089l.415 1.24c.033.097.12.166.222.175l4.22.382a.26.26 0 00.28-.238L8 .555a.257.257 0 00-.062-.187zm-.798 5.064L3.81 5.114a.255.255 0 00-.224.42.258.258 0 00.175.091l3.34.32-.05.719-3.789-.343-.319-.953 1.894-2.489a.255.255 0 00-.01-.323L3.653 1.197l.525-.65 3.288.228-.327 4.657z"/></g></svg>